# File created by Blade
# Date/Time:  Tue Sep 28 14:35:47 2010
#---------------------------------------------------------
:version 1.10
:name HOM
:units
  mass 1.0
  length 1.000000
  angle deg
:documentation
     Acclaim Skeleton File
:root
   axis xyz
   order TX TY TZ RX RY RZ
   position 0.000000 0.000000 0.000000
   orientation 0 0 0
:bonedata
   begin
      id 1
      name LeftUpLeg_dum
      direction 1.000000 0.000000 0.000000
      length 3.677894
      axis 0.0 0.0 0.0 xyz
   end
   begin
      id 2
      name RightUpLeg_dum
      direction -1.000000 0.000000 0.000000
      length 3.677894
      axis 0.0 0.0 0.0 xyz
   end
   begin
      id 3
      name Spine_dum
      direction 0.000000 1.000000 0.000000
      length 0.039370
      axis 0.0 0.0 0.0 xyz
   end
   begin
      id 4
      name LeftUpLeg
      direction 0.000000 -1.000000 0.000000
      length 18.389491
      axis 0.0 0.0 0.0 xyz
      dof rx ry rz
   end
   begin
      id 5
      name LeftLeg
      direction 0.000000 -1.000000 0.000000
      length 16.918313
      axis 0.0 0.0 0.0 xyz
      dof rx ry rz
   end
   begin
      id 6
      name LeftFoot
      direction 0.000000 -0.258819 0.965926
      length 6.436326
      axis 15.0 0.0 0.0 xyz
      dof rx ry rz
   end
   begin
      id 7
      name LeftToeBase
      direction 0.000000 0.000000 1.000000
      length 2.952750
      axis 0.0 0.0 0.0 xyz
      dof rx ry rz
   end
   begin
      id 8
      name RightUpLeg
      direction 0.000000 -1.000000 0.000000
      length 18.389491
      axis 0.0 0.0 0.0 xyz
      dof rx ry rz
   end
   begin
      id 9
      name RightLeg
      direction 0.000000 -1.000000 0.000000
      length 16.918313
      axis 0.0 0.0 0.0 xyz
      dof rx ry rz
   end
   begin
      id 10
      name RightFoot
      direction 0.000000 -0.258819 0.965926
      length 6.436326
      axis 15.0 0.0 0.0 xyz
      dof rx ry rz
   end
   begin
      id 11
      name RightToeBase
      direction 0.000000 0.000000 1.000000
      length 2.952750
      axis 0.0 0.0 0.0 xyz
      dof rx ry rz
   end
   begin
      id 12
      name Spine
      direction 0.000000 1.000000 0.000000
      length 9.194745
      axis 0.0 0.0 0.0 xyz
      dof rx ry rz
   end
   begin
      id 13
      name Spine1
      direction 0.000000 1.000000 0.000000
      length 0.000000
      axis 0.0 0.0 0.0 xyz
      dof rx ry rz
   end
   begin
      id 14
      name Spine1_dum1
      direction 0.000000 1.000000 0.000000
      length 9.194745
      axis 0.0 0.0 0.0 xyz
   end
   begin
      id 15
      name Spine1_dum2
      direction 0.000000 1.000000 0.000000
      length 9.194745
      axis 0.0 0.0 0.0 xyz
   end
   begin
      id 16
      name Spine1_dum3
      direction 0.000000 1.000000 0.000000
      length 9.194745
      axis 0.0 0.0 0.0 xyz
   end
   begin
      id 17
      name Neck
      direction 0.000000 1.000000 0.000000
      length 4.229598
      axis 0.0 0.0 0.0 xyz
      dof rx ry rz
   end
   begin
      id 18
      name Head
      direction 0.000000 1.000000 0.000000
      length 4.527550
      axis 0.0 0.0 0.0 xyz
      dof rx ry rz
   end
   begin
      id 19
      name LeftShoulder
      direction 1.000000 -0.000004 0.000000
      length 5.516839
      axis 0.0 0.0 -90.0 xyz
      dof rx ry rz
   end
   begin
      id 20
      name LeftArm
      direction 1.000000 -0.000004 0.000000
      length 11.033679
      axis 0.0 0.0 -90.0 xyz
      dof rx ry rz
   end
   begin
      id 21
      name LeftForeArm
      direction 1.000000 -0.000004 0.000000
      length 10.114232
      axis 0.0 0.0 -90.0 xyz
      dof rx ry rz
   end
   begin
      id 22
      name LeftHand
      direction 0.000000 0.000000 0.000000
      length 0.000000
      axis 0.0 0.0 -90.0 xyz
      dof rx ry rz
   end
   begin
      id 23
      name LeftHand_dum1
      direction 0.000000 0.000000 0.000000
      length 0.000000
      axis 0.0 0.0 -90.0 xyz
   end
   begin
      id 24
      name LeftHand_dum2
      direction 1.000000 -0.000004 0.000000
      length 3.937000
      axis 0.0 0.0 -90.0 xyz
   end
   begin
      id 25
      name LeftHandThumb
      direction 0.000000 0.000000 1.000000
      length 3.937000
      axis 0.0 0.0 -90.0 xyz
      dof rx ry rz
   end
   begin
      id 26
      name RightShoulder
      direction -1.000000 -0.000004 0.000000
      length 5.516839
      axis 0.0 0.0 90.0 xyz
      dof rx ry rz
   end
   begin
      id 27
      name RightArm
      direction -1.000000 -0.000004 0.000000
      length 11.033679
      axis 0.0 0.0 90.0 xyz
      dof rx ry rz
   end
   begin
      id 28
      name RightForeArm
      direction -1.000000 -0.000004 0.000000
      length 10.114232
      axis 0.0 0.0 90.0 xyz
      dof rx ry rz
   end
   begin
      id 29
      name RightHand
      direction 0.000000 0.000000 0.000000
      length 0.000000
      axis 0.0 0.0 90.0 xyz
      dof rx ry rz
   end
   begin
      id 30
      name RightHand_dum1
      direction 0.000000 0.000000 0.000000
      length 0.000000
      axis 0.0 0.0 90.0 xyz
   end
   begin
      id 31
      name RightHand_dum2
      direction -1.000000 -0.000004 0.000000
      length 5.393690
      axis 0.0 0.0 90.0 xyz
   end
   begin
      id 32
      name RightHandThumb
      direction 0.000000 0.000000 1.000000
      length 3.937000
      axis 0.0 0.0 90.0 xyz
      dof rx ry rz
   end
:hierarchy
   begin
      root LeftUpLeg_dum RightUpLeg_dum Spine_dum
      LeftUpLeg_dum LeftUpLeg
      RightUpLeg_dum RightUpLeg
      Spine_dum Spine
      LeftUpLeg LeftLeg
      LeftLeg LeftFoot
      LeftFoot LeftToeBase
      RightUpLeg RightLeg
      RightLeg RightFoot
      RightFoot RightToeBase
      Spine Spine1
      Spine1 Spine1_dum1 Spine1_dum2 Spine1_dum3
      Spine1_dum1 Neck
      Spine1_dum2 LeftShoulder
      Spine1_dum3 RightShoulder
      Neck Head
      LeftShoulder LeftArm
      LeftArm LeftForeArm
      LeftForeArm LeftHand
      LeftHand LeftHand_dum1 LeftHand_dum2
      LeftHand_dum1 LeftHandThumb
      RightShoulder RightArm
      RightArm RightForeArm
      RightForeArm RightHand
      RightHand RightHand_dum1 RightHand_dum2
      RightHand_dum1 RightHandThumb
   end

# File created by Blade
# Date/Time:  Tue Sep 28 14:35:42 2010
# Frame Rate: 200.000 fps
#------------------------------------------------------
:FULLY-SPECIFIED
:DEGREES
883
root  3.538084 37.591596 59.201456 6.784658 5.232907 -3.009620
LeftUpLeg  -5.190444 6.539758 -0.429919
LeftLeg  17.871227 -0.000000 0.000000
LeftFoot  -5.190022 10.114278 9.659720
LeftToeBase  -11.841082 0.000000 -0.000000
RightUpLeg  -33.416491 -25.616907 9.041886
RightLeg  33.808016 -0.000000 0.000000
RightFoot  6.420271 -5.801369 -18.693634
RightToeBase  -11.102138 0.000000 -0.000000
Spine  -14.935947 -5.646894 0.267334
Spine1  19.185616 -4.506375 7.349305
Neck  12.199131 2.352459 -6.242776
Head  -8.213007 1.593200 2.568310
LeftShoulder  -3.151346 -13.605569 -26.720969
LeftArm  8.136897 34.689170 -30.084212
LeftForeArm  36.407424 -0.000000 0.000000
LeftHand  7.222365 -7.555325 0.448037
LeftHandThumb  0.000000 -0.000000 0.000000
RightShoulder  1.149144 8.198301 23.310199
RightArm  -3.080350 -47.781337 39.818565
RightForeArm  23.098393 -0.000000 0.000000
RightHand  4.685850 7.117097 2.881240
RightHandThumb  0.000000 -0.000000 0.000000
884
root  3.537142 37.559264 59.349833 6.768577 5.278385 -3.002336
LeftUpLeg  -5.105090 6.498245 -0.400878
LeftLeg  18.216911 -0.000000 0.000000
LeftFoot  -5.542055 10.241809 9.508493
LeftToeBase  -11.777961 0.000000 -0.000000
RightUpLeg  -34.035033 -26.771557 9.799053
RightLeg  32.936878 -0.000000 0.000000
RightFoot  5.884335 -5.151331 -18.473721
RightToeBase  -10.575395 0.000000 -0.000000
Spine  -14.815654 -5.659928 0.304840
Spine1  19.276221 -4.539620 7.400955
Neck  11.956437 2.393625 -6.240820
Head  -8.091790 1.496050 2.495534
LeftShoulder  -3.082330 -13.720546 -26.682092
LeftArm  8.220407 34.571254 -30.011729
LeftForeArm  36.707983 -0.000000 0.000000
LeftHand  7.241884 -7.558202 0.713643
LeftHandThumb  0.000000 -0.000000 0.000000
RightShoulder  1.129304 7.955543 23.268204
RightArm  -2.896804 -47.513248 39.664858
RightForeArm  23.100028 -0.000000 0.000000
RightHand  4.640040 7.113666 2.957903
RightHandThumb  0.000000 -0.000000 0.000000
885
root  3.534471 37.530871 59.523240 6.805556 5.370687 -2.991933
LeftUpLeg  -4.948934 6.591089 -0.344786
LeftLeg  18.383062 -0.000000 0.000000
LeftFoot  -5.826573 10.152343 9.529852
LeftToeBase  -11.658331 0.000000 -0.000000
RightUpLeg  -34.591614 -28.121121 10.661536
RightLeg  31.901286 -0.000000 0.000000
RightFoot  5.206357 -4.213472 -18.834591
RightToeBase  -10.423596 0.000000 -0.000000
Spine  -14.758614 -5.692156 0.337738
Spine1  19.202556 -4.575370 7.454054
Neck  11.836610 2.391791 -6.303852
Head  -7.799552 1.337589 2.535604
LeftShoulder  -3.063899 -13.707971 -26.651072
LeftArm  8.323007 34.325119 -29.968722
LeftForeArm  36.903802 -0.000000 0.000000
LeftHand  7.066172 -7.333863 0.614534
LeftHandThumb  0.000000 -0.000000 0.000000
RightShoulder  1.071519 7.749038 23.231089
RightArm  -2.892493 -47.494592 39.648841
RightForeArm  23.018156 -0.000000 0.000000
RightHand  4.512869 7.489646 2.912180
RightHandThumb  0.000000 -0.000000 0.000000
886
root  3.529759 37.507204 59.687790 6.849733 5.485028 -2.984490
LeftUpLeg  -4.801396 6.678213 -0.287246
LeftLeg  18.478358 -0.000000 0.000000
LeftFoot  -5.943331 10.113836 9.625513
LeftToeBase  -11.804979 0.000000 -0.000000
RightUpLeg  -35.152463 -29.459071 11.565377
RightLeg  30.805127 -0.000000 0.000000
RightFoot  4.547227 -3.065438 -19.106641
RightToeBase  -10.777926 0.000000 -0.000000
Spine  -14.697407 -5.733442 0.368738
Spine1  19.187420 -4.623520 7.514402
Neck  11.812308 2.399687 -6.349202
Head  -7.905131 1.338556 2.559864
LeftShoulder  -2.991480 -13.824056 -26.643724
LeftArm  8.383779 34.234482 -29.940010
LeftForeArm  36.978886 -0.000000 0.000000
LeftHand  7.295789 -7.336212 0.700520
LeftHandThumb  0.000000 -0.000000 0.000000
RightShoulder  1.066852 7.783783 23.214358
RightArm  -3.073033 -47.684533 39.781654
RightForeArm  22.913939 -0.000000 0.000000
RightHand  4.454143 7.759560 2.903327
RightHandThumb  0.000000 -0.000000 0.000000
887
root  3.523378 37.479481 59.858712 6.883011 5.627003 -2.978823
LeftUpLeg  -4.640113 6.710230 -0.219151
LeftLeg  18.598981 -0.000000 0.000000
LeftFoot  -6.129411 10.084136 9.711429
LeftToeBase  -11.986423 0.000000 -0.000000
RightUpLeg  -35.782860 -30.871815 12.558394
RightLeg  29.799205 -0.000000 0.000000
RightFoot  3.783097 -1.900892 -19.445819
RightToeBase  -10.987321 0.000000 -0.000000
Spine  -14.658326 -5.783887 0.400879
Spine1  19.185896 -4.681665 7.576089
Neck  11.824804 2.360816 -6.399578
Head  -7.940866 1.314322 2.566889
LeftShoulder  -2.937057 -13.884095 -26.635185
LeftArm  8.448143 34.131607 -29.877751
LeftForeArm  37.155047 -0.000000 0.000000
LeftHand  7.331941 -7.321838 0.786305
LeftHandThumb  0.000000 -0.000000 0.000000
RightShoulder  1.028056 7.744334 23.202817
RightArm  -3.180777 -47.710617 39.855757
RightForeArm  22.809797 -0.000000 0.000000
RightHand  4.403171 7.786915 2.893762
RightHandThumb  0.000000 -0.000000 0.000000
888
root  3.513900 37.451585 60.034132 6.914024 5.796773 -2.976356
LeftUpLeg  -4.461708 6.679568 -0.132789
LeftLeg  18.705010 -0.000000 0.000000
LeftFoot  -6.332634 10.021622 9.844173
LeftToeBase  -12.276176 0.000000 -0.000000
RightUpLeg  -36.472468 -32.359443 13.649465
RightLeg  28.835800 -0.000000 0.000000
RightFoot  2.949668 -0.632830 -19.981400
RightToeBase  -10.969497 0.000000 -0.000000
Spine  -14.644828 -5.846494 0.427966
Spine1  19.191164 -4.749716 7.640675
Neck  11.839382 2.251942 -6.411798
Head  -7.870588 1.293018 2.482059
LeftShoulder  -2.887364 -13.893519 -26.645701
LeftArm  8.538023 33.897672 -29.817272
LeftForeArm  37.224290 -0.000000 0.000000
LeftHand  7.492305 -7.125536 0.881584
LeftHandThumb  0.000000 -0.000000 0.000000
RightShoulder  0.952736 7.635590 23.199641
RightArm  -3.221184 -47.545961 39.874909
RightForeArm  22.728611 -0.000000 0.000000
RightHand  4.488766 7.603172 2.860243
RightHandThumb  0.000000 -0.000000 0.000000
889
root  3.505985 37.419854 60.220126 6.938600 5.992243 -2.974484
LeftUpLeg  -4.275023 6.690079 -0.041481
LeftLeg  18.850365 -0.000000 0.000000
LeftFoot  -6.600439 9.966940 9.812595
LeftToeBase  -12.344001 0.000000 -0.000000
RightUpLeg  -37.256827 -34.019052 14.871794
RightLeg  27.954099 -0.000000 0.000000
RightFoot  1.877393 0.826558 -20.512528
RightToeBase  -10.825426 0.000000 -0.000000
Spine  -14.667667 -5.919268 0.457830
Spine1  19.201961 -4.828442 7.710590
Neck  11.890036 2.306059 -6.518865
Head  -7.948320 1.272319 2.597537
LeftShoulder  -2.853734 -13.841813 -26.648613
LeftArm  8.590155 33.806483 -29.697154
LeftForeArm  37.609066 -0.000000 0.000000
LeftHand  7.302348 -6.981192 0.851835
LeftHandThumb  0.000000 -0.000000 0.000000
RightShoulder  0.854279 7.471015 23.191823
RightArm  -3.202446 -47.381446 39.817334
RightForeArm  22.665925 -0.000000 0.000000
RightHand  4.487700 7.949494 3.112390
RightHandThumb  0.000000 -0.000000 0.000000
890
root  3.496154 37.388846 60.397137 6.959292 6.166737 -2.950374
LeftUpLeg  -4.118244 6.746834 0.038336
LeftLeg  19.006445 -0.000000 0.000000
LeftFoot  -6.822233 9.812613 9.695219
LeftToeBase  -12.442847 0.000000 -0.000000
RightUpLeg  -38.134429 -35.704897 16.202136
RightLeg  27.079720 -0.000000 0.000000
RightFoot  0.930082 2.351379 -21.007308
RightToeBase  -11.188053 0.000000 -0.000000
Spine  -14.654804 -5.988874 0.480870
Spine1  19.230090 -4.904055 7.762912
Neck  11.875933 2.273486 -6.578355
Head  -7.966742 1.218885 2.570966
LeftShoulder  -2.740708 -13.948986 -26.682811
LeftArm  8.655366 33.709996 -29.664468
LeftForeArm  37.523164 -0.000000 0.000000
LeftHand  7.570999 -7.081872 0.965381
LeftHandThumb  0.000000 -0.000000 0.000000
RightShoulder  0.792864 7.377434 23.184875
RightArm  -3.211220 -47.292101 39.794381
RightForeArm  22.621499 -0.000000 0.000000
RightHand  4.387513 7.385425 3.152288
RightHandThumb  0.000000 -0.000000 0.000000
891
root  3.485283 37.362462 60.565637 7.023842 6.330757 -2.949242
LeftUpLeg  -3.990630 6.792634 0.123406
LeftLeg  19.096899 -0.000000 0.000000
LeftFoot  -6.923420 9.755080 9.804425
LeftToeBase  -12.681210 0.000000 -0.000000
RightUpLeg  -38.259716 -36.024471 16.761814
RightLeg  25.576852 -0.000000 0.000000
RightFoot  0.338869 3.159937 -20.544515
RightToeBase  -11.358063 0.000000 -0.000000
Spine  -14.671338 -6.062428 0.508798
Spine1  19.285675 -4.986390 7.843440
Neck  11.878565 2.309097 -6.633392
Head  -8.002015 1.258944 2.568474
LeftShoulder  -2.664850 -13.931165 -26.726571
LeftArm  8.753024 33.460590 -29.594616
LeftForeArm  37.657832 -0.000000 0.000000
LeftHand  7.544201 -6.899447 1.027678
LeftHandThumb  0.000000 -0.000000 0.000000
RightShoulder  0.761552 7.441612 23.198579
RightArm  -3.346188 -47.363180 39.856769
RightForeArm  22.557795 -0.000000 0.000000
RightHand  4.392444 7.545125 3.213626
RightHandThumb  0.000000 -0.000000 0.000000
892
root  3.467515 37.337673 60.732017 7.069015 6.486881 -2.968544
LeftUpLeg  -3.885824 6.920337 0.247256
LeftLeg  19.265324 -0.000000 0.000000
LeftFoot  -7.048752 9.654526 9.900535
LeftToeBase  -13.078557 0.000000 -0.000000
RightUpLeg  -38.381799 -36.314683 17.360457
RightLeg  24.074142 -0.000000 0.000000
RightFoot  -0.074887 3.942031 -20.116760
RightToeBase  -12.010187 0.000000 -0.000000
Spine  -14.694495 -6.121378 0.526478
Spine1  19.412649 -5.056876 7.933358
Neck  11.840172 2.201535 -6.731061
Head  -8.149894 1.102635 2.636459
LeftShoulder  -2.545904 -14.100094 -26.789044
LeftArm  8.790637 33.399923 -29.503543
LeftForeArm  37.699784 -0.000000 0.000000
LeftHand  7.702527 -6.933685 1.085898
LeftHandThumb  0.000000 -0.000000 0.000000
RightShoulder  0.779736 7.599790 23.218692
RightArm  -3.586550 -47.448389 40.007067
RightForeArm  22.458616 -0.000000 0.000000
RightHand  4.442802 7.718920 3.166592
RightHandThumb  0.000000 -0.000000 0.000000
893
root  3.445855 37.310404 60.910216 7.103023 6.593418 -3.004647
LeftUpLeg  -3.759811 7.114562 0.403864
LeftLeg  19.471690 -0.000000 0.000000
LeftFoot  -7.274803 9.479890 9.971177
LeftToeBase  -13.115366 0.000000 -0.000000
RightUpLeg  -38.395287 -36.402575 17.828063
RightLeg  22.648119 -0.000000 0.000000
RightFoot  -0.586509 4.575346 -19.626415
RightToeBase  -12.123838 0.000000 -0.000000
Spine  -14.745068 -6.174746 0.548052
Spine1  19.535171 -5.121732 8.053881
Neck  11.803406 2.252546 -6.786538
Head  -8.134205 1.148545 2.592011
LeftShoulder  -2.472917 -14.144308 -26.857208
LeftArm  8.847125 33.233787 -29.419023
LeftForeArm  37.764499 -0.000000 0.000000
LeftHand  7.851225 -6.738790 1.040893
LeftHandThumb  0.000000 -0.000000 0.000000
RightShoulder  0.756617 7.586204 23.256861
RightArm  -3.634545 -47.397275 39.971615
RightForeArm  22.429228 -0.000000 0.000000
RightHand  4.446222 8.037930 3.315976
RightHandThumb  0.000000 -0.000000 0.000000
